<svg data-noselect="" viewBox="0 0 400 300" width="400" height="300" preserveAspectRatio="none" version="1.1" xmlns="http://www.w3.org/2000/svg" style="background: rgb(246, 244, 236);"><defs></defs> <g id="shape_R5mSlYlKSM" transform="translate(123.46938775510206,40.63572331587502) rotate(0,54,61.5) scale(1.3545241105291672,1.3545241105291672)" filter="" style="cursor: move; opacity: 1;"><g><rect fill="rgba(0,0,0,0)" width="128" height="143" x="-10" y="-10"></rect><svg version="1.1" id="图层_1" xmlns="http://www.w3.org/2000/svg" xmlns:xlink="http://www.w3.org/1999/xlink" x="0px" y="0px" style="enable-background:new 0 0 283.46 226.77;" xml:space="preserve" viewBox="76.9100112915039 48.33100128173828 108.14177703857422 123.2439956665039" width="108" height="123" preserveAspectRatio="none" data-parent="shape_R5mSlYlKSM">
<g>
	<path style="" d="M110.674,86.522c0-0.628-0.261-1.382-0.261-1.382s-1.833,1.13-4.45,1.13
		c-7.46,0-10.732-5.527-10.732-9.799c0-8.292,5.628-11.432,12.564-11.432c6.674,0,10.47,3.768,10.47,10.427
		c0,17.211-20.678,24.498-20.678,42.588c0,12.187,9.686,18.469,21.202,18.469c7.116,0,14.969-2.719,18.739-4.772
		c6.279-3.837,18.544-11.438,33.259-33.617c4.242-6.395,8.401-15.683,11.369-25.396c1.855-6.069,2.617-12.938,1.867-16.443
		c-0.864-4.041-3.593-6.96-8.434-6.96c-15.312,0-20.967,18.053-28.558,47.703c-2.878,11.055-10.311,22.524-23.137,22.524
		c-3.533,0-5.104-1.884-5.104-5.024c0-10.554,18.453-20.353,18.453-40.704c0-13.82-7.59-25.503-29.447-25.503
		c-18.191,0-30.886,12.185-30.886,28.643c0,8.292,5.628,19.976,20.941,19.976C104.26,96.951,110.674,92.804,110.674,86.522z" fill="#DA2856"></path>
	<path style="" d="M174.011,99.049c8.654,22.107-17.269,34.083-17.269,34.083c0.826-5.906,2.309-11.863,4.164-17.732
		c-5.014,6.507-11.689,12.677-20.498,16.757c-0.42,1.851-0.862,3.761-1.072,4.619c-22.118,1.507-41.749,6.406-41.749,21.482
		c0,7.161,7.46,13.317,18.715,13.317c16.329,0,30.18-7.629,36.217-20.586l-19.579,1.994c-2.854,2.698-7.555,5.651-12.842,5.651
		c-2.75,0-3.795-1.005-3.795-2.01c0-2.644,6.282-4.747,13.081-5.668c0.377-0.069,0.768-0.136,1.188-0.203
		c3.849-0.609,12.975-1.305,21.498-2.892c14.71-1.881,22.791-8.984,22.791-8.984C198.276,120.06,174.011,99.049,174.011,99.049z" fill="#2A9DD4"></path>
</g>
</svg></g> <!----></g><g id="shapge_4ZlX53pYYb" transform="translate(98.41069171031248,215.36933357413758) rotate(0,75,16.24) scale(1.3545241105291672,1.3545241105291672)" filter="" style="cursor: move; opacity: 1;"><g><svg xmlns="http://www.w3.org/2000/svg" version="1.1" xmlns:xlink="http://www.w3.org/1999/xlink" overflow="hidden" style="top:0; left: 0" width="150" height="32.48" viewBox="0 0 150 32.48" preserveAspectRatio="none" data-parent="shapge_4ZlX53pYYb"><rect fill="rgba(0,0,0,0)" width="150" height="32.48"></rect> <rect opacity="0"></rect><g transform="translate(0 0)" data-width="138.417"><path fill="rgb(218, 40, 86)" d="M9.16-19.08L5.60-19.08L5.60-11.19L9.16-11.19L9.16-11.19Q11.66-11.19 12.99-12.21L12.99-12.21L12.99-12.21Q14.33-13.22 14.33-15.28L14.33-15.28L14.33-15.28Q14.33-17.40 12.99-18.24L12.99-18.24L12.99-18.24Q11.66-19.08 9.16-19.08L9.16-19.08ZM12.18-9.31L17.63 0L14.59 0L9.43-9.02L5.60-9.02L5.60 0L2.90 0L2.90-21.26L9.57-21.26L9.57-21.26Q11.75-21.26 13.41-20.69L13.41-20.69L13.41-20.69Q15.08-20.13 16.04-18.82L16.04-18.82L16.04-18.82Q16.99-17.52 16.99-15.28L16.99-15.28L16.99-15.28Q16.99-12.82 15.69-11.32L15.69-11.32L15.69-11.32Q14.38-9.83 12.18-9.31L12.18-9.31Z" transform="translate(0 25.52)"></path><path fill="rgb(218, 40, 86)" d="M6.58-11.89L5.54-8.64L11.98-8.64L10.96-11.89L10.96-11.89Q9.83-15.46 8.82-19.08L8.82-19.08L8.70-19.08L8.70-19.08Q7.71-15.43 6.58-11.89L6.58-11.89ZM17.52 0L14.67 0L12.64-6.50L4.87-6.50L2.81 0L0.09 0L7.31-21.26L10.29-21.26L17.52 0Z" transform="translate(18.415000000000003 25.52)"></path><path fill="rgb(218, 40, 86)" d="M5.60 0L2.90 0L2.90-21.26L5.60-21.26L5.60 0Z" transform="translate(36.018 25.52)"></path><path fill="rgb(218, 40, 86)" d="M5.45 0L2.90 0L2.90-21.26L5.68-21.26L13.43-7.86L15.69-3.48L15.83-3.48L15.83-3.48Q15.81-4.06 15.75-4.64L15.75-4.64L15.75-4.64Q15.49-7.48 15.49-10.21L15.49-10.21L15.49-21.26L18.04-21.26L18.04 0L15.28 0L7.54-13.43L5.25-17.81L5.13-17.81L5.13-17.81Q5.19-16.91 5.25-15.95L5.25-15.95L5.25-15.95Q5.45-13.57 5.45-11.17L5.45-11.17L5.45 0Z" transform="translate(44.515 25.52)"></path><path fill="rgb(218, 40, 86)" d="" transform="translate(65.453 25.52)"></path><path fill="rgb(218, 40, 86)" d="M11.25 0.38L11.25 0.38L11.25 0.38Q8.47 0.38 6.31-0.93L6.31-0.93L6.31-0.93Q4.15-2.23 2.91-4.70L2.91-4.70L2.91-4.70Q1.68-7.16 1.68-10.61L1.68-10.61L1.68-10.61Q1.68-14.07 2.94-16.53L2.94-16.53L2.94-16.53Q4.21-19.00 6.41-20.33L6.41-20.33L6.41-20.33Q8.61-21.66 11.43-21.66L11.43-21.66L11.43-21.66Q13.66-21.66 15.15-20.85L15.15-20.85L15.15-20.85Q16.65-20.04 17.55-19.02L17.55-19.02L16.10-17.28L16.10-17.28Q15.31-18.15 14.21-18.73L14.21-18.73L14.21-18.73Q13.11-19.31 11.48-19.31L11.48-19.31L11.48-19.31Q8.29-19.31 6.37-16.99L6.37-16.99L6.37-16.99Q4.44-14.67 4.44-10.70L4.44-10.70L4.44-10.70Q4.44-6.67 6.26-4.32L6.26-4.32L6.26-4.32Q8.09-1.97 11.51-1.97L11.51-1.97L11.51-1.97Q13.83-1.97 15.37-3.22L15.37-3.22L15.37-8.79L10.88-8.79L10.88-11.02L17.84-11.02L17.84-2.09L17.84-2.09Q16.79-1.02 15.09-0.32L15.09-0.32L15.09-0.32Q13.40 0.38 11.25 0.38Z" transform="translate(76.995 25.52)"></path><path fill="rgb(218, 40, 86)" d="M10.76 0.38L10.76 0.38L10.76 0.38Q6.76 0.38 4.22-2.61L4.22-2.61L4.22-2.61Q1.68-5.60 1.68-10.70L1.68-10.70L1.68-10.70Q1.68-15.81 4.22-18.73L4.22-18.73L4.22-18.73Q6.76-21.66 10.76-21.66L10.76-21.66L10.76-21.66Q14.76-21.66 17.30-18.73L17.30-18.73L17.30-18.73Q19.84-15.81 19.84-10.70L19.84-10.70L19.84-10.70Q19.84-5.60 17.30-2.61L17.30-2.61L17.30-2.61Q14.76 0.38 10.76 0.38ZM10.76-1.97L10.76-1.97L10.76-1.97Q13.60-1.97 15.34-4.35L15.34-4.35L15.34-4.35Q17.08-6.73 17.08-10.70L17.08-10.70L17.08-10.70Q17.08-14.70 15.34-17.01L15.34-17.01L15.34-17.01Q13.60-19.31 10.76-19.31L10.76-19.31L10.76-19.31Q7.89-19.31 6.16-17.01L6.16-17.01L6.16-17.01Q4.44-14.70 4.44-10.70L4.44-10.70L4.44-10.70Q4.44-6.73 6.16-4.35L6.16-4.35L6.16-4.35Q7.89-1.97 10.76-1.97Z" transform="translate(96.976 25.52)"></path><path fill="rgb(218, 40, 86)" d="M8.35 0L2.90 0L2.90-21.26L8.24-21.26L8.24-21.26Q13.14-21.26 15.70-18.52L15.70-18.52L15.70-18.52Q18.27-15.78 18.27-10.70L18.27-10.70L18.27-10.70Q18.27-5.66 15.72-2.83L15.72-2.83L15.72-2.83Q13.17 0 8.35 0L8.35 0ZM5.60-19.08L5.60-2.20L8.00-2.20L8.00-2.20Q11.77-2.20 13.63-4.44L13.63-4.44L13.63-4.44Q15.49-6.67 15.49-10.70L15.49-10.70L15.49-10.70Q15.49-14.76 13.63-16.92L13.63-16.92L13.63-16.92Q11.77-19.08 8.00-19.08L8.00-19.08L5.60-19.08Z" transform="translate(118.494 25.52)"></path></g></svg></g> <!----></g>  <!----></svg>